<svg xmlns="http://www.w3.org/2000/svg" viewBox="0 0 54.9 25.71"><title>TimeLineBullet</title><g id="Layer_2" data-name="Layer 2"><g id="Layer_1-2" data-name="Layer 1"><g id="hnRMJJ.tif"><path d="M13,8.84c0-.13.07-.23.09-.32s.06-.32.1-.48a.51.51,0,0,1,.07-.15,4,4,0,0,1,.24-.46,3.31,3.31,0,0,1,.4-.44,3.28,3.28,0,0,1,.31-.2l.07,0a3.84,3.84,0,0,1,1.11-.14,1.41,1.41,0,0,1,.8.23,4.54,4.54,0,0,1,.5.36,1.67,1.67,0,0,1,.34.48c.11.23.14.48.25.69a.78.78,0,0,1,.07.42,5,5,0,0,1,0,.55,4.34,4.34,0,0,1-.17.69c-.07.2-.19.38-.28.58a.75.75,0,0,0,0,.16s0,.06,0,.06a.23.23,0,0,0,.12,0c.13-.08.22-.2.39-.18l.06,0a.93.93,0,0,1,.52-.09c.36,0,.72,0,1.09,0a2.71,2.71,0,0,1,.29,0,7.7,7.7,0,0,1,.83,0,.73.73,0,0,1,.3.16.62.62,0,0,0,.44.12,3.65,3.65,0,0,1,.91-.17,3.13,3.13,0,0,1,.53.12.87.87,0,0,0,.48,0c.3-.08.6-.16.91-.22.12,0,.24,0,.36,0l.15,0,.45.07s.07,0,.1,0,.26.14.39.2.39.36.59.54a1.51,1.51,0,0,1,.27.39c.09.14.24.16.32,0s.12-.22.19-.33.22-.29.32-.43a.7.7,0,0,1,.15-.19c.1-.07.16-.2.25-.29s.33-.32.48-.5A.63.63,0,0,1,28,9.86c.09,0,.16-.15.25-.21a2.16,2.16,0,0,1,.36-.22,1.52,1.52,0,0,1,.4-.12,2.63,2.63,0,0,1,.79-.09,1.36,1.36,0,0,1,.85.29,3.54,3.54,0,0,0,.54.39c.15.1.23,0,.23-.13V9.28c0-.43,0-.86,0-1.29,0-.17,0-.33,0-.49s0-.46,0-.69c0-.9,0-1.8,0-2.7a.34.34,0,0,0-.3-.4.9.9,0,0,1-.57-.51.5.5,0,0,0-.08-.12.32.32,0,0,1,0-.09,2.1,2.1,0,0,1,0-.79,1,1,0,0,1,.15-.33,3.28,3.28,0,0,1,.27-.38,1.13,1.13,0,0,1,.65-.39,6.21,6.21,0,0,1,.75,0h.08c.25,0,.5,0,.75,0a5.33,5.33,0,0,1,.66.17l.18,0a1,1,0,0,1,.45.27l.18.18,0,.07a.75.75,0,0,1,.1.2.85.85,0,0,1,0,.23l0,1.19c0,.12,0,.25,0,.38V7.73c0,.12,0,.24,0,.36a.14.14,0,0,0,.21.08L35.21,8A.52.52,0,0,1,35.34,8c.14-.07.28-.15.43-.21a2.09,2.09,0,0,1,.36-.07,1.83,1.83,0,0,1,.93.08,2.21,2.21,0,0,1,.66.35,1.46,1.46,0,0,1,.47.58c.07.13.15.25.21.38a1.22,1.22,0,0,1,.06.26.85.85,0,0,0,.06.17c.08.14.12.15.29.11a1.27,1.27,0,0,1,.34,0,4.85,4.85,0,0,0,.75-.11,3.46,3.46,0,0,1,.56,0,.76.76,0,0,1,.15,0,2.56,2.56,0,0,1,.62,0,.78.78,0,0,1,.6.41.51.51,0,0,0,.49.23,4.15,4.15,0,0,1,.86,0,1.11,1.11,0,0,1,.6.28l.41.42a.35.35,0,0,1,.06.09c0,.11.09.24.14.35a.17.17,0,0,0,.3.07A1.41,1.41,0,0,0,45,10.8a1.09,1.09,0,0,1,.23-.3,4.15,4.15,0,0,0,.45-.49,2.76,2.76,0,0,1,.29-.3,1.65,1.65,0,0,1,.41-.28c.12-.07.25-.12.37-.2a1.34,1.34,0,0,1,.65-.2l.11,0a1,1,0,0,1,.57,0,.41.41,0,0,0,.21.05.61.61,0,0,1,.4.12,3.3,3.3,0,0,1,.49.34,2,2,0,0,1,.26.24,2.92,2.92,0,0,1,.23.29l.23.33a.07.07,0,0,1,0,.05c.05.13.08.26.13.39s.12.28.18.42l0,.12c.07.27.12.55.19.82a7,7,0,0,1,.1.92,8.42,8.42,0,0,1,.1,1.66c0,.42-.07.84-.12,1.26a1.13,1.13,0,0,1-.29.52c-.08.12-.21.2-.21.36a.32.32,0,0,0,0,.2c.12.1.11.23.13.36s0,.44.06.67c0,.06,0,.11,0,.18a1.65,1.65,0,0,1,0,.38,4.81,4.81,0,0,1-.16.54c-.06.16-.14.31-.2.47a.25.25,0,0,1,0,.07.18.18,0,0,0,.09.27c.23.06.46.1.69.14l.71.11.35,0,.77.09c.11,0,.23,0,.35,0l1.25.1a1.27,1.27,0,0,1,.34,0,1.42,1.42,0,0,1,.44.23c.08.05.11.18.15.27a.7.7,0,0,1-.09.67.87.87,0,0,1-.35.36c-.09.05-.16.14-.25.19l-.29.13c-.14.07-.26.17-.4.23s-.46.19-.7.29l-.33.16-.44.19-.78.3-.18,0s-.09,0-.11,0-.28.11-.42.18A5,5,0,0,1,50,24l-.43.15-.24.08c-.32.09-.64.17-1,.27l-.62.2-.66.12-.13,0-.53.13-.67.18a2.4,2.4,0,0,0-.28,0,4.73,4.73,0,0,1-.9.16,6,6,0,0,0-.61.1c-.3.1-.61.06-.9.15a3.46,3.46,0,0,1-.78.09c-.2,0-.41.06-.61.06a3.19,3.19,0,0,1-.61-.08.35.35,0,0,1-.19-.13,1.69,1.69,0,0,1-.24-.41,2.09,2.09,0,0,1-.08-.5c0-.23,0-.46,0-.69a.2.2,0,0,0-.09-.13.36.36,0,0,0-.18-.07,5.12,5.12,0,0,0-.54-.1l-.51-.05-.89-.12h-.05a5.53,5.53,0,0,0-1.21-.18c-.43-.08-.87-.1-1.31-.15l-.61,0-.89-.09h0L33,23c-.33,0-.67,0-1,0a8.46,8.46,0,0,0-.88.1.61.61,0,0,0-.28.18c-.09.09-.15.22-.24.32s-.18.14-.26.22l-.14.14-.35.23s-.06,0-.07,0a.66.66,0,0,1-.32.21c-.14.05-.26.14-.4.2l-.4.13a4,4,0,0,1-1.29.17c-.23,0-.46,0-.69-.05a4.91,4.91,0,0,1-.51-.15,3.54,3.54,0,0,1-.76-.3c-.1-.06-.21-.11-.31-.18s-.4-.3-.59-.46a1,1,0,0,1-.24-.26.55.55,0,0,0-.46-.2c-.12,0-.24,0-.37,0l-1.13,0c-.39,0-.78-.06-1.17-.11s-.73-.12-1.11-.15a2,2,0,0,1-.6-.1c-.36-.14-.76-.1-1.11-.23a4,4,0,0,0-.67-.14c-.2,0-.39-.13-.58-.18l-.74-.17-.35-.1c-.2-.05-.41-.08-.61-.14S15.13,22,15,22s-.33-.08-.49-.12-.24-.09-.37-.11-.17,0-.19.17a7.53,7.53,0,0,1-.1.83.68.68,0,0,1-.32.43.79.79,0,0,1-.67.11,1.11,1.11,0,0,1-.29-.14l-.52-.3c-.11-.07-.21-.15-.32-.21l-.46-.26a.83.83,0,0,1-.15-.11l-.06,0a.75.75,0,0,1-.35-.21,1,1,0,0,0-.27-.16,1.75,1.75,0,0,1-.4-.22c-.07-.08-.19-.1-.29-.16s-.28-.06-.36-.2h0c-.17,0-.24-.14-.36-.2s-.24-.12-.37-.18l-.59-.27-.39-.18-.45-.21L6.8,20l-.73-.29a7.61,7.61,0,0,0-.75-.28c-.22-.06-.42-.16-.63-.22s-.41-.12-.62-.18l-.71-.2-.75-.15-.49-.09-.43-.05-1-.11a.38.38,0,0,1-.29-.1c-.06-.07-.17-.1-.2-.21s0-.05,0-.07S.11,18,.1,18a.8.8,0,0,1,.08-.69,2.41,2.41,0,0,1,.21-.24c.13-.19.36-.22.53-.35a2.27,2.27,0,0,1,.39-.16c.06,0,.12-.08.18-.1A5,5,0,0,0,2,16.21a2.23,2.23,0,0,1,.39-.13l.51-.22.06,0,.48-.14.74-.23.57-.13.63-.2h.11c.34,0,.66-.14,1-.19L7,14.86l.55-.07.55-.07.73-.09c.21,0,.42,0,.62,0s.37-.12.33-.34a.2.2,0,0,1,0-.07l-.09-1.57v-.42c0-.34,0-.68,0-1s-.06-.68-.09-1v-.11c0-.56,0-1.11,0-1.67a3.74,3.74,0,0,0,0-.75c-.08-.37,0-.74-.08-1.1a5,5,0,0,1,0-.55c0-.5,0-1-.05-1.52a.84.84,0,0,0-.08-.27s-.07,0-.11,0a6.56,6.56,0,0,0-1.08.09,1.55,1.55,0,0,1-.31,0,3,3,0,0,1-.42,0,.21.21,0,0,0-.25.17.87.87,0,0,1-.35.45,2.25,2.25,0,0,1-.35.22,2,2,0,0,1-.48.1c-.1,0-.21,0-.31,0a1.25,1.25,0,0,1-.54-.12,1,1,0,0,1-.38-.3,1.42,1.42,0,0,1-.23-.77c0-.18-.06-.36-.1-.55,0,0,0-.06,0-.1,0-.49,0-1,0-1.47a1.35,1.35,0,0,1,0-.4,1.54,1.54,0,0,1,.17-.34s0-.05,0-.07S4.61,1,4.7.93,4.92.78,5,.73A1.28,1.28,0,0,1,5.49.6a1.53,1.53,0,0,1,.76.07,2.32,2.32,0,0,1,.46.27c.06,0,.1.12.15.14a.67.67,0,0,0,.28.06c.11,0,.23,0,.34,0,.36,0,.72,0,1.08,0s.76,0,1.14-.05.58-.06.87-.09c.13,0,.26,0,.39,0L12.1.88h.42L13.78.82C13.9.82,14,.73,14,.6a1,1,0,0,1,.17-.24,1,1,0,0,1,.68-.27,2.16,2.16,0,0,1,.72,0,1,1,0,0,1,.57.31,2.18,2.18,0,0,0,.21.22,0,0,0,0,1,0,0,3.22,3.22,0,0,1,.14.44,5.58,5.58,0,0,1,.08.57,3.27,3.27,0,0,1,0,.44c0,.33,0,.66.05,1a3.24,3.24,0,0,1-.07.88.94.94,0,0,1-.46.65.67.67,0,0,1-.4.15c-.17,0-.33.11-.51.08a2.9,2.9,0,0,1-.6-.11,1,1,0,0,1-.52-.48A2.4,2.4,0,0,1,14,3.9a.22.22,0,0,0-.25-.14l-.35,0-.54,0a.32.32,0,0,0-.28.43.47.47,0,0,1,0,.17c0,.39,0,.78,0,1.18s.07.85.09,1.28c0,.2,0,.4,0,.6s.06.59.09.88,0,.27,0,.41S13,8.81,13,8.84Z" transform="translate(-0.06 -0.07)"/></g></g></g></svg>